<?xml version="1.0" encoding="utf-8"?>
<!-- Generator: Adobe Illustrator 27.2.0, SVG Export Plug-In . SVG Version: 6.00 Build 0)  -->
<svg version="1.1" id="Warstwa_1" xmlns="http://www.w3.org/2000/svg" xmlns:xlink="http://www.w3.org/1999/xlink" x="0px" y="0px"
	 viewBox="0 0 50 10" style="enable-background:new 0 0 50 10;" xml:space="preserve">
<style type="text/css">
	.st0{fill:#261810;}
</style>
<g>
	<path class="st0" d="M13.51,7.09c3.55-7.21,14.24-8.42,19.58-2.6c0.71,0.79,1.32,1.65,1.81,2.58c0.14,0.26,0.04,0.57-0.21,0.71
		c-0.14,0.08-0.31,0.08-0.45,0.02c-0.89-0.37-1.64-0.88-2.48-1.23c-1.58-0.71-3.27-1.34-4.99-1.62c-2.54-0.45-5.12-0.17-7.61,0.62
		c-1.71,0.58-3.36,1.3-4.94,2.22C13.78,8.06,13.25,7.52,13.51,7.09L13.51,7.09z"/>
</g>
</svg>
